<?xml version="1.0" encoding="UTF-8"?>
<!DOCTYPE svg PUBLIC "-//W3C//DTD SVG 1.1//EN" "http://www.w3.org/Graphics/SVG/1.1/DTD/svg11.dtd">
<!-- Creator: CorelDRAW -->
<?xml-stylesheet href="logo.css" type="text/css"?>
<svg xmlns="http://www.w3.org/2000/svg" xml:space="preserve" width="200px" height="199px" version="1.1" style="shape-rendering:geometricPrecision; text-rendering:geometricPrecision; image-rendering:optimizeQuality; fill-rule:evenodd; clip-rule:evenodd"
viewBox="0 0 140.06 139.49"
 xmlns:xlink="http://www.w3.org/1999/xlink"
 xmlns:xodm="http://www.corel.com/coreldraw/odm/2003">
 <g id="Слой_x0020_1">
  <metadata id="CorelCorpID_0Corel-Layer"/>
  <g id="_2123508211936">
   <path class="fil0" d="M134.9 138.32c0.34,-0.04 1.35,-0.78 1.6,-1 0.23,-0.21 0.55,-0.36 0.76,-0.61 0.23,-0.29 0.37,-0.52 0.61,-0.76l0.96 -1.06c0.11,-0.17 0.03,-0.05 0.09,-0.26 0.18,-0.52 0.55,-1.01 0.6,-1.14 0.2,-0.49 0.32,-0.58 0.26,-1.06 -0.01,-0.59 0.2,-0.47 0.24,-0.98 0.05,-0.59 0.06,-2.92 -0.04,-3.3l-1.07 -2.31c-0.6,-0.88 -1.34,-1.66 -2.33,-2.14 -0.39,-0.19 -1.14,-0.54 -1.61,-0.61 -0.35,-0.04 -0.73,-0.04 -1.09,-0.05 -0.75,-0.02 -1.49,-0.02 -2.24,-0.02l-35.75 0c-0.95,0 -17.36,-0.08 -17.84,0.05 -0.12,1.65 0.26,1.76 -0.64,3.67 -0.1,0.21 -0.18,0.08 -0.7,0.49l-0.17 0.12c-0.29,0.19 -0.34,0.19 -0.71,0.22 -1.17,0.09 -12.11,0.02 -13.3,0 -0.49,-0.01 -0.34,0.03 -0.7,-0.27l-0.59 -0.63c-0.29,-0.37 -0.39,-0.26 -0.49,-0.59 -0.56,-1.82 -0.17,-1.22 -0.32,-3.03 -0.93,-0.11 -2.34,-0.03 -3.33,-0.03l-49.92 0c-0.53,0 -1.15,0 -1.67,0.04 -0.53,0.04 -0.3,0.13 -0.61,0.23 -0.23,0.08 -0.41,0.03 -0.65,0.15 -0.71,0.34 -0.57,0.15 -1.14,0.55l-1.36 1.16c-0.49,0.47 -0.7,0.89 -0.97,1.48 -0.55,1.25 -0.39,0.62 -0.58,1.98 -0.03,0.26 -0.12,0.42 -0.16,0.61 -0.13,0.57 0.1,1.02 0.17,1.44 0.08,0.54 -0.02,1.04 0.23,1.44 0.21,0.35 0.06,0.32 0.16,0.7 0.1,0.37 0.16,0.13 0.25,0.54 0.1,0.42 0.16,0.57 0.4,0.93l0.28 0.5c0.16,0.35 0.64,0.87 0.9,1.2 0.09,0.1 0.12,0.13 0.2,0.24 0.23,0.31 0.31,0.4 0.64,0.6 0.66,0.4 0.73,0.79 1.34,1.09 1.14,0.57 1.02,0.64 2.31,1.02 0.58,0.18 0.47,0.28 1.34,0.32 0.5,0.02 0.93,0.15 1.45,0.19 2.05,0.13 4.56,0 6.66,0l79.88 0c1.13,0 2.19,-0.07 3.26,-0.07 1.1,0 2.13,0.05 3.25,0.06l19.98 0.01c2.38,0 7.57,0.14 9.75,-0.23l2.41 -0.88zm-14.12 -11.48l-39.12 0c-0.17,0.29 -0.59,1.44 -0.95,1.88 -0.11,0.14 -0.21,0.16 -0.32,0.32 -0.11,0.15 -0.17,0.3 -0.29,0.44 -0.07,0.08 -0.28,0.27 -0.37,0.35 -0.12,0.09 -0.11,0.06 -0.22,0.14 -0.68,0.54 -0.4,0.3 -1.04,0.7l-1 0.45c-0.24,0.06 -0.39,0.04 -0.62,0.11 -0.65,0.21 -1.05,0.3 -1.87,0.3l-11.43 0c-1.17,0 -1.99,-0.2 -2.9,-0.58 -0.47,-0.2 -0.24,0.03 -0.74,-0.35 -0.2,-0.16 -0.3,-0.15 -0.65,-0.44 -0.92,-0.77 -1.12,-0.91 -1.7,-1.84 -0.45,-0.72 -0.17,-0.65 -0.7,-1.48l-49.97 -0.01c-1.24,0 -1.4,-0.03 -2.16,0.87l-0.07 0.08c-0.53,0.59 -0.93,1.38 -0.77,2.49 0.03,0.25 0.13,0.39 0.18,0.61 0.06,0.27 0.04,0.42 0.12,0.67 0.11,0.37 0.33,0.88 0.51,1.15l0.75 0.84c0.25,0.27 0.56,0.58 0.86,0.8 0.81,0.62 1.17,0.75 2.22,1.03 0.85,0.23 8.43,0.13 9.64,0.13l76.56 0c0.61,0 0.99,0.07 1.59,0.07l3.12 -0.07c0.56,0.01 1.05,0.12 2.09,0.13 2.65,0 6.05,0.05 8.69,-0.01 0.72,-0.01 1.45,-0.1 2.17,-0.06 1.2,0.05 3.26,0 4.48,-0.01l13.25 0.01c0.94,0 2.11,-0.19 2.87,-0.66 0.19,-0.13 0.01,-0.04 0.19,-0.11 0.18,-0.07 0.33,-0.06 0.44,-0.14 0.02,0 0.46,-0.44 0.54,-0.53l0.33 -0.26c0.67,-0.51 1.25,-1.66 1.42,-2.48 0.16,-0.76 0.34,-0.31 0.29,-1.96 -0.03,-0.87 -0.13,-0.81 -0.64,-1.61 -0.18,-0.28 -0.29,-0.3 -0.62,-0.54 -0.79,-0.57 -1.98,-0.44 -2.94,-0.44l-6.44 0c-2.86,-0.07 -1.48,-0.11 -4.78,0.01z"/>
   <path class="fil0" d="M35.89 21.41c-0.3,0.25 -0.54,0.37 -0.72,0.73 -0.24,0.47 -0.4,0.35 -0.62,0.9 -0.12,0.31 -0.15,0.24 -0.25,0.47 -0.35,0.8 -0.35,0.98 -0.47,1.86 -0.07,0.49 -0.04,1.59 0.09,2.07l0.66 1.66c0.36,0.63 0.53,0.56 0.63,0.9 0.51,0.13 0.1,0.16 0.84,0.61 0.19,0.11 0.14,0.1 0.29,0.21l0.58 0.36c0.56,0.23 0.29,0.2 0.63,0.31 0.74,0.24 0.73,0.29 1.61,0.31 0.59,0.02 1.68,0.08 2.22,-0.13 0.2,-0.07 0.3,-0.28 0.92,0.28l0.32 0.33c0.52,0.51 0.4,0.57 1.49,1.62 0.72,0.69 0.78,0.57 0.77,1.12 -4.77,0.12 -9.69,0 -14.48,0 -2.41,0 -4.82,0 -7.23,0 -2.29,0 -6.87,-0.21 -8.93,0.22 -0.27,0.05 -0.4,0.14 -0.63,0.22l-1.19 0.61c-0.14,0.09 -0.14,0.1 -0.25,0.18 -0.26,0.2 -0.81,0.57 -0.99,0.81 -0.05,0.05 -0.04,0.06 -0.1,0.12l-0.11 0.11c-0.02,0.01 -0.03,0.02 -0.04,0.03l-0.68 1.12c-0.65,1.03 -0.24,0.82 -0.52,1.31 -0.33,0.59 -0.19,2.83 -0.19,3.52l0 65.34c0,0.41 -0.02,2.31 0.06,2.65 0.08,0.34 0.15,0.15 0.27,0.68 0.13,0.53 0.45,0.85 0.6,1.18 0.42,0.94 0.95,1.4 1.81,1.89l1.08 0.73 1.34 0.43c1.31,0.12 7.43,0.03 9.05,0.03l98.05 0c0.45,0 2.28,0.08 2.61,-0.13 0.21,-0.12 -0.06,-0.07 0.28,-0.14 0.19,-0.04 0.39,-0.03 0.58,-0.03 0.17,-0.02 0.48,-0.19 0.66,-0.27 0.26,-0.11 0.13,-0.07 0.33,-0.18 0.3,-0.17 0.2,-0.02 0.5,-0.29l0.47 -0.4c0.28,-0.2 0.35,-0.3 0.55,-0.53 0.21,-0.23 0.28,-0.32 0.48,-0.6 0.33,-0.47 0.18,-0.03 0.43,-0.65 0.25,-0.6 0.5,-0.85 0.57,-1.62 0.24,-0.09 -0.13,0.16 0.17,-0.03 0.23,-2.89 0.08,-6.43 0.08,-9.45l0 -61.15c-0.01,-0.52 -0.32,-1.35 -0.54,-1.82 -0.07,-0.17 -0.1,-0.27 -0.17,-0.41 -0.3,-0.64 -0.67,-0.98 -1.05,-1.41 -0.09,-0.1 -0.16,-0.23 -0.22,-0.35 -0.25,-0.07 -0.98,-0.63 -1.36,-0.88 -0.28,-0.17 -1.16,-0.55 -1.48,-0.62 -1.36,-0.26 -2.45,-0.22 -3.98,-0.22l-24.24 -0.01c-0.38,0.01 -1.35,0.11 -0.93,-0.4 0,-0.01 0.22,-0.17 0.25,-0.2 0.16,-0.14 0.27,-0.27 0.45,-0.43 0.25,-0.23 0.62,-0.72 0.84,-0.88 0.51,-0.39 1.07,0.14 1.43,0.2 0.36,0.06 0.43,-0.02 0.73,0.12 0.29,0.13 0.27,0.16 0.7,0.18 0.28,0.01 0.67,0.01 0.95,-0.02 0.48,-0.04 0.29,-0.1 0.64,-0.22 0.63,-0.22 0.74,0.04 1.35,-0.4l1.1 -0.71c0.34,-0.23 0.23,-0.04 0.48,-0.39 0.11,-0.15 0.22,-0.29 0.37,-0.49 0.13,-0.19 0.08,-0.12 0.2,-0.32 0.4,-0.68 0.84,-1.3 0.94,-2.1 0.12,-1.09 0.23,-2.82 -0.47,-3.76 -0.18,-0.26 -0.17,-0.58 -0.62,-1.12 0,0 -0.19,-0.22 -0.21,-0.23 -0.81,-0.78 -0.84,-1.13 -2.22,-1.65 -2.33,-0.89 -4.66,-0.37 -6.47,1.26 -0.13,0.12 -0.04,0.03 -0.12,0.11 -0.38,0.45 -0.82,1.13 -1.02,1.67 -0.14,0.35 -0.2,0.14 -0.26,0.6 -0.13,1.05 -0.26,0.7 -0.3,1.44 -0.08,2.01 0.7,2.42 0.11,3.06l-1.11 1.14c-0.28,0.25 -0.07,0.14 -0.45,0.48 -0.02,0.01 -0.03,0.02 -0.04,0.03 -0.44,0.39 -0.12,0.22 -0.59,0.64l-0.32 0.34c-0.01,0.01 -0.02,0.03 -0.03,0.04l-0.07 0.07c-0.04,0.03 -0.05,0.02 -0.13,0.08l-2.15 2.13c-0.01,0.01 -0.03,0.02 -0.04,0.03 -0.17,0.18 -0.28,0.23 -0.32,0.36l0.01 12.98 3.77 0.02c0.03,-1.67 0.01,-3.37 0.01,-5.04 0,-0.86 -0.18,-4.38 0.14,-4.84 0.22,-0.17 23.17,-0.06 28,-0.06 0.99,0 1.66,-0.11 2.33,0.19 0.46,0.21 0.2,-0.1 0.93,0.36 0.94,0.6 1.29,1.1 1.31,2.46 0.02,1.68 0.01,3.39 0,5.07 -0.09,13.57 0,27.17 0,40.74 0,6.8 0,13.61 0,20.41 0,0.74 0.06,1.84 -0.09,2.52 -0.11,0.52 -0.4,0.72 -0.47,0.81 -0.11,0.14 -0.12,0.26 -0.28,0.39 -0.23,0.2 -0.86,0.68 -1.19,0.72 -0.45,0.05 -0.7,0.16 -1.02,0.18 -0.77,0.04 -1.73,-0.01 -2.53,-0.01l-50.65 -0.11c-13.58,-0.03 -27.16,-0.03 -40.74,-0.03l-12.74 -0.01c-0.83,-0.01 -1.35,0.09 -2,-0.88 -0.57,-0.85 -0.51,-0.44 -0.62,-1.56 -0.08,-0.79 -0.04,-1.72 -0.04,-2.53l0 -61.07c0,-1.58 -0.11,-3.61 0.04,-5.13 0.06,-0.61 -0.02,-0.66 0.28,-1.04 0.29,-0.37 0.8,-1.07 1.34,-1.21l0.94 -0.26 27.92 -0.01c2.04,0 2.51,-0.29 2.54,0.48 0,0.13 -0.01,0.3 -0.01,0.44l0 7.89c0,1.16 -0.16,1.39 0.29,1.43 0.46,0.04 3.03,0.03 3.4,-0.06 0.11,-0.42 0.03,-10.64 0.03,-12.01 0.01,-1.13 0.2,-2.22 -0.29,-2.7 -0.34,-0.32 -0.33,-0.16 -0.43,-0.58l-1.1 -1.01c-0.18,-0.19 -0.13,-0.23 -0.36,-0.43 -0.52,-0.43 -0.97,-0.99 -1.44,-1.44 -0.33,-0.16 -0.55,-0.49 -0.84,-0.76 -1.49,-1.37 -0.21,-1.07 -0.01,-2.99 0.05,-0.46 0.08,-0.95 0.05,-1.44 -0.1,-1.58 -0.96,-3.1 -2.18,-4.08 -0.44,-0.36 -1.15,-0.73 -1.66,-0.95 -0.23,-0.1 -0.36,-0.03 -0.59,-0.13 -0.8,-0.34 -0.24,-0.27 -2.03,-0.23 -1.11,0.02 -0.61,0.15 -1.18,0.27 -0.41,0.09 -0.28,0 -0.61,0.21 -0.19,0.12 0,0.01 -0.23,0.12 -0.14,0.06 -0.04,0 -0.16,0.07l-1.09 0.58z"/>
   <path class="fil0" d="M91.69 63.16c0.71,0.07 0.37,0.21 0.84,0.32 1.23,0.32 1.11,0.39 2.79,0.59 0.71,0.08 1.28,0.22 1.97,0.28 0.88,0.07 1.3,0.03 1.96,0.38 0.07,0.72 0.03,2.94 -0.02,3.84 -0.02,0.29 0.02,0.26 -0.15,0.41 -0.22,0.17 -3.42,0.31 -4.04,0.47l-1.66 0.19c-0.39,0.01 -0.49,0.1 -0.78,0.15 -1.04,0.23 -0.13,0.04 -0.86,0.34 -0.65,0.25 -0.85,0.84 -1.07,1.15l-0.57 1.06c-0.16,0.97 -0.12,0.38 -0.33,0.91l-0.56 1.4c-0.1,0.47 -0.53,1.28 -0.54,1.34 -0.05,0.51 -0.32,1.11 -0.52,1.44 -0.16,0.26 -0.06,0.24 -0.16,0.51 -0.12,0.33 -0.24,0.04 -0.24,1.04 -0.01,0.34 -0.04,0.97 0.06,1.27l0.63 1.23c0.12,0.16 0.13,0.11 0.3,0.35l0.55 0.77c0.14,0.23 0.13,0.1 0.31,0.32l1.84 2.42c0.23,0.31 0.42,0.72 0.1,1.06l-0.69 0.62c-0.23,0.23 -0.42,0.49 -0.63,0.66 -0.44,0.35 -0.46,0.49 -1.05,0.9 -0.34,0.24 -0.08,-0.08 -0.27,0.34 -0.57,0.04 -0.44,0.07 -0.76,-0.2l-1.78 -1.33c-0.24,-0.16 -0.31,-0.35 -0.51,-0.5l-1.76 -1.35c-0.56,-0.32 -0.52,-0.44 -1.41,-0.6 -0.37,-0.07 -0.46,-0.18 -0.85,-0.14 -0.29,0.03 -0.54,0.16 -0.87,0.21 -0.63,0.1 -1.05,0.47 -1.52,0.57 -0.47,0.1 -0.36,0.19 -0.74,0.31 -0.34,0.1 -0.57,0.22 -0.91,0.23 -0.39,0 -0.38,0.12 -0.62,0.24l-2.04 0.78c-1.08,0.65 -1.05,0.16 -1.97,1.29 -0.14,0.17 -0.12,0.08 -0.21,0.23 0.06,0.85 -0.52,0.27 -0.58,2.56 -0.01,0.5 0.05,0.53 -0.26,0.75 -0.01,0.4 -0.02,0.8 -0.03,1.2 -0.01,0.54 0.09,0.68 -0.27,0.89 -0.02,0.93 0.17,1.76 -0.85,1.77 -0.29,0 -0.58,-0.01 -0.87,-0.01 -0.75,0 -2.78,0 -3.09,-0.44 -0.11,-0.15 -0.12,-0.32 -0.14,-0.63 -0.03,-0.28 -0.03,-0.58 -0.04,-0.86 -0.02,-0.63 -0.16,-0.93 -0.21,-1.44 -0.07,-0.61 -0.07,-1.7 -0.23,-2.27 -0.05,-0.16 -0.04,-0.01 -0.11,-0.33 -0.12,-0.57 -0.25,-0.84 -0.69,-1.36l-0.84 -0.79c-0.47,-0.19 -0.16,-0.17 -0.53,-0.27 -0.82,-0.24 -0.94,-0.44 -1.19,-0.56 -0.35,-0.18 -0.49,0.1 -0.58,-0.37l-0.13 -0.02c-0.45,0.02 -0.89,-0.22 -1.25,-0.42l-2.31 -0.87c-0.19,-0.13 0.15,-0.07 -0.62,-0.22 -0.26,-0.05 -0.23,-0.11 -0.34,-0.24 -0.4,-0.05 -1.66,-0.11 -1.98,0.03 -0.19,0.09 -0.09,0.1 -0.3,0.19 -1.1,0.44 -0.57,0.27 -1.55,0.99l-0.6 0.41c-0.58,0.53 -0.45,0.35 -0.91,0.68 -0.02,0.01 -0.07,0.05 -0.09,0.06 -0.35,0.26 -0.33,0.36 -0.67,0.62 -0.01,0.01 -0.03,0.03 -0.04,0.03 -0.65,0.5 -0.16,0.07 -0.6,0.35 -0.23,0.14 -0.33,0.38 -0.76,0.06l-1.31 -1.23c-0.1,-0.11 -0.15,-0.15 -0.25,-0.25l-0.82 -0.92c-0.68,-0.67 -0.42,-0.78 0.07,-1.45 0.3,-0.4 0.29,-0.25 0.46,-0.55 0.24,-0.43 0.28,-0.39 0.53,-0.7l0.61 -0.69c0.01,-0.02 0.06,-0.09 0.09,-0.13l0.95 -1.29c0.59,-0.88 0.91,-2.65 0.36,-3.7l-0.34 -0.67c-0.12,-0.25 -0.05,-0.18 -0.1,-0.45 -0.06,-0.35 -0.62,-0.89 -0.55,-1.54l-1.52 -3.43c-0.06,-0.12 -0.11,-0.14 -0.18,-0.25 -0.17,-0.27 -0.01,-0.31 -0.27,-0.45 -0.4,-0.19 -0.44,-0.41 -0.63,-0.52 -1.95,-1.07 -3.8,-0.82 -4.65,-1.07 -0.5,-0.15 -1.66,-0.1 -2.01,-0.29 -0.2,-0.49 -0.1,-2.69 -0.1,-3.41 0.01,-0.58 -0.09,-1.13 0.47,-1.28 0.25,-0.06 1.44,-0.09 1.73,-0.06 0.44,-0.14 0.33,-0.02 0.78,-0.16 0.51,-0.16 1.94,-0.17 2.29,-0.25 0.41,-0.08 1.23,-0.39 1.55,-0.63 0.34,-0.26 0.5,-0.35 0.73,-0.72 0.05,-0.08 0.09,-0.13 0.15,-0.21l0.09 -0.13c0.68,-1.15 0.02,-0.45 0.63,-1.31 0.16,-0.22 0.1,-0.31 0.39,-0.7 0.15,-0.19 0.16,-0.22 0.14,-0.53 -0.32,-0.22 -0.33,-0.16 -0.62,-0.31 -0.22,-0.1 -0.02,-0.04 -0.23,-0.12 -0.22,-0.08 -0.28,-0.02 -0.49,-0.17 -0.27,-0.18 0.03,-0.12 -0.41,-0.22 -0.86,-0.21 -1.32,-0.63 -1.95,-0.62l-0.07 0.21c-0.04,0.38 -0.19,0.44 -0.29,0.92 -0.07,0.37 -0.25,0.49 -0.44,0.75 -0.58,0 -1.68,0.07 -2.21,0.2 -1.04,0.27 -1.95,0.14 -2.68,0.34 -0.69,0.2 -0.49,0.03 -1.41,0.42 -0.24,0.1 -0.5,0.39 -0.71,0.51 -0.62,0.36 -0.21,0.3 -0.83,0.98 -0.32,0.35 -0.01,0.35 -0.25,0.87 -0.12,0.26 -0.11,0.01 -0.13,0.48 -0.03,0.78 -0.18,5.52 0.01,5.96 0.17,0.38 0.25,0.43 0.26,0.96l0.33 0.25c0.01,0.01 0.02,0.03 0.03,0.04 0.23,0.32 0.17,0.25 0.28,0.65 0.86,0.21 0.33,0.38 1.11,0.65 0.95,0.34 -0.4,0.13 1.38,0.36 0.38,0.05 0.25,0.13 0.67,0.19l1.62 0.13c0.37,0.1 0.15,0.13 0.68,0.18 0.72,0.07 1.81,-0.04 2.01,0.57 0.21,0.65 0.15,0.19 0.28,0.58 0.05,0.12 0.05,0.24 0.09,0.36 0.05,0.13 0.1,0.18 0.15,0.28 0.03,0.07 0.13,0.56 0.49,1.26 0.32,0.63 0.1,0.33 0.23,0.69 0.06,0.17 0.51,0.85 0.56,1.16 0.13,0.72 0.71,1.07 -0.11,1.86 -0.14,0.14 -0.05,0.01 -0.22,0.22 -0.24,0.29 -0.25,0.45 -0.32,0.57 -0.13,0.22 -0.1,0.07 -0.48,0.51l-0.27 0.31c-0.01,0.02 -0.02,0.03 -0.03,0.04 -0.01,0.01 -0.03,0.03 -0.03,0.04l-1.32 1.71c-0.09,0.13 -0.23,0.38 -0.35,0.53 -0.29,0.38 -0.1,0.28 -0.21,0.68 -0.08,0.28 -0.21,0.18 -0.25,0.61 -0.03,0.31 0.01,0.7 0.01,1.02 0,0.18 0.27,0.82 0.36,1.01 0.33,0.67 0.57,0.77 1.01,1.24 0.14,0.14 0.16,0.25 0.3,0.42 0.23,0.3 0.48,0.48 0.74,0.78 0.1,0.13 0.2,0.29 0.31,0.42 0.14,0.16 0.22,0.14 0.38,0.35 0.33,0.44 0.4,0.42 0.91,0.96l1.03 0.78c0.7,0.37 0.58,0.37 1.11,0.43 0.82,0.1 -0.02,0.42 1.87,0.05 0.04,-0.01 0.25,-0.04 0.31,-0.06 0.35,-0.1 0.19,-0.14 0.46,-0.26 0.28,-0.13 0.12,0.01 0.49,-0.24 0.57,-0.39 -0.04,-0.06 0.69,-0.46l0.8 -0.66c0.26,-0.24 0.18,-0.1 0.46,-0.26l2.16 -1.63c0.38,-0.07 0.14,0.06 0.73,0.28 0.3,0.11 0.37,0.16 0.77,0.25l1.26 0.55c0.1,0.04 0.12,0.03 0.23,0.07 0.54,0.2 2.01,0.8 2.5,1.12 0.53,0.35 0.17,0.19 0.47,2.14l0.2 1.9c0.03,0.39 0.16,0.45 0.19,0.81 0.11,1.05 -0.03,0.56 0.27,1.32 0.06,0.14 0.07,0.27 0.12,0.4 0.08,0.22 0.27,0.43 0.37,0.63 0.41,0 0.03,-0.09 0.39,0.21 1.27,1.06 2.31,1.01 3.93,1.05 0.49,0.01 0.84,0.11 1.3,0.09l3.26 -0.14c0.31,-0.03 0.56,-0.21 0.84,-0.41l0.52 -0.35c0.13,-0.13 0.16,-0.21 0.29,-0.36 0.97,-1.09 0.7,-1.72 0.98,-2.5 0.16,-0.48 0.08,-1.57 0.17,-1.86 0.09,-0.33 0.12,-0.07 0.17,-0.54 0.09,-0.86 -0.01,-1.34 0.21,-1.82 0.13,-0.27 0.06,-0.29 0.18,-0.58 0.49,-0.15 0.46,-0.23 0.96,-0.33 0.3,-0.06 0.24,-0.11 0.44,-0.2 0.2,-0.1 0.29,-0.06 0.48,-0.17 0.24,-0.15 0.07,-0.13 0.47,-0.21 0.35,-0.08 0.2,-0.05 0.45,-0.18l1.01 -0.35c0.14,-0.03 0.26,-0.06 0.42,-0.14 0.28,-0.15 -0.07,-0.02 0.24,-0.13 0.31,-0.1 1.21,-0.39 1.43,-0.31 0.1,0.07 0.29,0.25 0.38,0.34 0.22,0.23 0.24,0.17 0.65,0.51l0.87 0.66c0.11,0.13 0.06,0.12 0.14,0.21l2.71 2 1.12 0.41 1.15 0.01c0.37,-0.07 0.1,-0.05 0.33,-0.12 0.09,-0.02 0.56,-0.11 0.61,-0.12 0.01,-0.02 0.03,-0.07 0.04,-0.05 0.1,0.16 -0.1,-0.01 0.36,-0.29 0.01,-0.01 0.03,-0.02 0.04,-0.03 0.01,0 0.03,-0.01 0.04,-0.02l0.25 -0.25c0.09,-0.08 0.15,-0.13 0.24,-0.2l0.38 -0.27c0.01,-0.01 0.02,-0.02 0.03,-0.03l0.65 -0.58c0.01,-0.01 0.02,-0.03 0.03,-0.04 0.01,-0.01 0.02,-0.03 0.03,-0.04l0.99 -0.89c0.09,-0.11 0.11,-0.12 0.21,-0.23l1.75 -1.8c0,-0.01 0.13,-0.22 0.15,-0.26 0.36,-0.7 0.17,-0.7 0.31,-1.12 0.05,-0.15 0.27,-0.27 0.18,-1.14 -0.08,-0.78 -0.18,0.21 -0.3,-1.08 -0.02,-0.01 -0.05,-0.04 -0.06,-0.03 0,0 -0.11,0.01 -0.21,-0.21 -0.02,-0.07 -0.01,-0.13 -0.06,-0.24 -0.08,-0.19 0.01,-0.01 -0.12,-0.18l-0.96 -1.19c-0.32,-0.52 0,-0.23 -0.53,-0.65 -0.28,-0.23 -0.05,-0.26 -0.55,-0.83 -0.06,-0.07 -0.05,-0.03 -0.14,-0.14 -0.25,-0.32 -0.43,-0.72 -0.68,-0.99l-0.57 -0.53c-0.06,-1.07 0.13,-0.14 0.28,-1.22 0.05,-0.35 0.1,-0.23 0.18,-0.36 0.03,-0.03 0.04,-0.02 0.09,-0.16 0.15,-0.41 -0.1,-0.04 0.25,-0.59 0.71,-1.1 0.15,-0.92 0.6,-1.5 0.54,-0.71 0.62,-1.56 1.03,-2.21 0.28,-0.05 0.59,-0.01 0.82,-0.07 0.39,-0.09 0.12,-0.15 0.75,-0.19 0.47,-0.03 1.33,-0.04 1.8,-0.11 0.28,-0.05 0.4,-0.11 0.76,-0.16 0.29,-0.04 0.59,-0.06 0.89,-0.09 0.24,-0.01 0.61,-0.02 0.86,-0.07 0.45,-0.08 0.28,-0.2 0.79,-0.18 0.48,0.07 0.66,-0.18 0.99,-0.46 0.38,-0.3 0.26,0.07 0.91,-0.97 0.37,-0.59 0.15,-0.41 0.34,-0.81 0.27,-0.56 0.13,-0.66 0.2,-1.32 0.16,-1.47 0.23,-4.35 -0.11,-5.79 -0.02,-0.09 -0.14,-0.42 -0.19,-0.53l-0.63 -0.89c-0.49,-0.32 -0.57,-0.54 -0.86,-0.65 -0.23,-0.09 -0.39,-0.08 -0.63,-0.18 -0.37,-0.15 -0.17,-0.11 -0.63,-0.17 -0.45,-0.05 -0.22,-0.12 -0.59,-0.19 -0.37,-0.06 -1.06,-0.1 -1.44,-0.1 -0.65,-0.01 -0.77,-0.2 -1.24,-0.26 -0.5,-0.07 -0.89,-0.03 -1.32,-0.2 -0.78,-0.29 -1.3,0.21 -1.49,-0.62 -0.07,-0.32 0,-0.12 -0.12,-0.38l-0.39 -0.69c-0.08,-0.15 -0.27,-1.36 -0.65,-1.51 -0.19,-0.07 -1.9,0.67 -2.19,0.83 -0.27,0.14 -0.28,0.05 -0.52,0.14l-0.61 0.32c-0.34,0.24 -0.09,0.45 0.03,0.9l0.52 1.29c0.18,0.61 -0.15,0.01 0.27,0.66 0.18,0.27 0.04,0.4 0.61,1.2 0.11,0.15 0.07,0.13 0.16,0.27 0.15,0.23 0.46,0.44 0.61,0.69z"/>
   <path class="fil0" d="M72.43 0.74l-0.57 -0.2c-0.28,-0.13 -0.24,-0.21 -0.58,-0.26 -1.22,-0.18 -1.72,-0.46 -2.94,-0.12 -0.46,0.13 -0.79,0.18 -1.29,0.44l-0.99 0.68c-0.19,0.24 -0.21,-0.01 -0.93,0.72 -0.23,0.23 -0.18,0.21 -0.34,0.46 -0.4,0.63 -0.24,0.18 -0.49,0.83 -0.18,0.48 -0.25,-0.07 -0.3,1.05 -0.28,0.14 -0.2,0.01 -0.26,0.35l-0.01 2.11c0,0.16 0.02,0.5 0.05,0.65 0.05,0.28 0.82,1.8 1.09,2.09 0.41,0.45 0.28,0.15 0.55,0.45 0.14,0.17 0.19,0.23 0.34,0.38 0.4,0.4 0.33,0.22 0.6,0.42l0.21 0.17c0.03,0.02 0.18,0.1 0.22,0.13 0.02,0.01 0.07,0.05 0.09,0.06 0.01,0 0.03,0.02 0.05,0.02 0.25,0.14 0.38,0.11 0.62,0.19 0.2,0.51 0.1,16.6 0.1,18.59 0,6.22 -0.08,12.49 0,18.69l3.74 0.01c0.07,-3.1 0.01,-6.26 0.01,-9.36l0 -25.76c0,-0.79 -0.09,-1.58 0.15,-2.2 0.9,-0.1 0.1,-0.07 0.9,-0.38l0.17 -0.08c0.74,-0.46 0.39,-0.13 0.64,-0.46 0.27,-0.33 0.29,-0.23 0.5,-0.43 0.36,-0.32 0.24,-0.38 0.65,-0.86 0.36,-0.41 0.24,-0.45 0.5,-0.88 0.23,-0.36 0.08,-0.54 0.25,-0.84 0.18,-0.33 0.15,-0.18 0.19,-0.89 0.03,-0.65 0.05,-1.48 -0.14,-2.07 -0.19,-0.6 -0.42,-1.39 -0.89,-1.77 -0.49,-0.4 0.12,-0.29 -0.9,-1.11 -0.01,-0.01 -0.02,-0.03 -0.04,-0.04 -0.35,-0.27 -0.67,-0.45 -0.89,-0.7 -0.01,-0.01 -0.02,-0.03 -0.03,-0.04 -0.01,-0.01 -0.02,-0.02 -0.03,-0.04z"/>
   <path class="fil0" d="M85.01 11.91c-0.03,0.04 -0.18,0.16 -0.26,0.23l-0.94 1.02c-0.74,1.03 -1.22,2.74 -1.01,3.98 0.06,0.35 0.1,0.77 0.15,1.16 0.09,0.6 0.34,0.2 0.27,1.02l-0.9 0.97c-0.06,0.08 0,0.01 -0.1,0.11l-0.11 0.11c-0.08,0.08 -0.14,0.14 -0.25,0.25l-2.18 2.17c-0.15,0.17 -0.01,0.16 -0.27,0.17 -0.09,0.29 -0.21,0.33 -0.4,0.53 -0.12,0.11 -0.34,0.39 -0.43,0.44 -0.18,0.71 -0.07,10.64 -0.07,12.25 0,2.05 0,4.1 0,6.15 0,2 -0.08,4.16 0.01,6.13l3.44 0.01c0.1,-1.36 0.02,-5.95 0.02,-7.66l0 -13.53c0,-0.54 -0.14,-1.39 0.18,-1.72l3.31 -3.28c0.01,-0.01 0.03,-0.03 0.04,-0.04l0.3 -0.27c0.37,-0.3 0.21,-0.32 0.68,-0.11 0.29,0.13 0.2,0.06 0.5,0.11 0.45,0.07 0.12,0.24 0.87,0.26 0.47,0.02 1.89,0.16 2.29,-0.12 0.42,-0.29 0.49,-0.01 0.89,-0.27 0.71,-0.45 0.6,-0.04 1.28,-0.73 0.34,-0.34 0.54,-0.68 0.94,-0.72 0.09,-0.25 0.29,-0.32 0.55,-0.83l0.47 -0.9c0.07,-0.19 0.09,-0.37 0.16,-0.56 0.09,-0.25 0.14,-0.22 0.18,-0.45 0.1,-0.55 0.09,-2.13 -0.11,-2.61 -0.01,-0.04 -0.09,-0.22 -0.1,-0.25 -0.35,-1.15 -0.12,-0.05 -0.39,-0.96 -0.12,-0.41 -0.46,-0.77 -0.64,-1.03 -0.28,-0.42 -0.61,-0.69 -1.02,-1.01 -0.27,-0.2 -0.54,-0.42 -0.84,-0.53 -0.36,-0.14 -0.25,-0.15 -0.47,-0.25 -0.21,-0.1 -0.32,-0.05 -0.53,-0.14 -0.23,-0.09 -0.17,-0.16 -0.49,-0.21l-2.02 -0.03c-0.22,0.01 -0.47,0.02 -0.65,0.08 -0.2,0.07 -0.2,0.12 -0.44,0.2 -0.69,0.22 0.01,-0.08 -0.81,0.29l-1.1 0.57z"/>
   <path class="fil0" d="M54.63 24.98c0.21,0.01 0.12,0 0.26,0.1 0.01,0.01 0.2,0.2 0.22,0.22 0.15,0.14 0.26,0.25 0.41,0.4 0.53,0.16 0.36,0.49 0.36,1.14l0 18.81c0,0.88 -0.07,2.08 0.01,2.92l3.46 0.03c0.08,-0.92 0.01,-11 0.01,-12.21 0,-1.38 0.1,-11.16 -0.08,-12.28 -0.16,-0.11 -0.05,0 -0.16,-0.14 -0.03,-0.05 -0.06,-0.09 -0.09,-0.15 -0.18,-0.32 0.21,0.41 -0.09,-0.18 -0.14,-0.07 -0.03,-0.02 -0.21,-0.16 -0.26,-0.19 -0.07,0 -0.25,-0.24l-0.86 -0.89c-0.02,-0.01 -0.03,-0.02 -0.05,-0.03l-2.03 -2.08c-0.56,-0.56 -0.77,-0.45 -0.24,-1.67 0.13,-0.29 0.36,-1.8 0.3,-2.18 -0.13,-0.86 -0.35,-2.18 -0.86,-2.88 -0.2,-0.27 -0.31,-0.41 -0.58,-0.64 -0.24,-0.2 -0.11,-0.16 -0.27,-0.39l-0.99 -0.81c-0.58,-0.34 -0.66,-0.31 -0.88,-0.44 -0.33,-0.19 -0.32,-0.1 -0.89,-0.33 -0.47,-0.19 -1.83,-0.1 -2.41,-0.09 -0.89,0.02 -1.17,0.3 -1.92,0.65l-1.44 1.02c-0.32,0.35 -0.83,1.12 -0.99,1.53 -0.09,0.25 -0.13,0.21 -0.23,0.43 -0.06,0.14 -0.09,0.27 -0.15,0.43 -0.37,1.01 -0.27,3.07 0.12,3.93l0.63 1.19c0.21,0.42 0.16,0.13 0.55,0.75 0.11,0.17 0.16,0.16 0.34,0.27l0.4 0.34c0.82,0.68 0.65,0.39 1.1,0.63 0.22,0.12 0.07,0.12 0.43,0.17 1.07,0.16 0.47,0.16 1.04,0.27 0.33,0.07 2.11,0.08 2.4,-0.03 0.06,-0.02 0.5,-0.35 1.05,-0.17l2.03 2c0.37,0.38 0.59,0.44 0.55,0.76z"/>
   <path class="fil1 str0" d="M69.25 81.28c7.81,0 14.13,-6.32 14.13,-14.12 0,-7.81 -6.32,-14.13 -14.13,-14.13 -7.8,0 -14.13,6.32 -14.13,14.13 0,7.8 6.33,14.12 14.13,14.12z"/>
  </g>
 </g>
</svg>
